<?xml version="1.0" encoding="utf-8"?>
<!-- Generator: Adobe Illustrator 23.0.1, SVG Export Plug-In . SVG Version: 6.00 Build 0)  -->
<svg version="1.1" id="Layer_1" xmlns="http://www.w3.org/2000/svg" xmlns:xlink="http://www.w3.org/1999/xlink" x="0px" y="0px"
	 viewBox="0 0 200 53.57" style="enable-background:new 0 0 200 53.57;" xml:space="preserve">
<style type="text/css">
	.st0{fill:#FFFFFF;}
</style>
<g>
	<rect y="0.02" class="st0" width="53.4" height="53.42"/>
	<g>
		<path class="st0" d="M75.45,17.96c0.51-0.2,0.99-0.44,1.46-0.71c0.84-0.49,1.58-1.11,2.19-1.84c0.62-0.73,1.1-1.6,1.43-2.58
			c0.34-0.97,0.5-2.06,0.5-3.24V9.31c0-1.73-0.31-3.21-0.94-4.41c-0.64-1.2-1.51-2.18-2.61-2.92c-1.07-0.71-2.34-1.23-3.78-1.54
			c-1.89-0.4-3.94-0.48-6.29-0.43c-0.62,0.02-1.25,0.03-1.86,0.06c-0.62,0.03-1.21,0.06-1.77,0.1c-0.58,0.04-1.08,0.09-1.52,0.14
			C61.69,0.4,61.29,0.56,61,0.82c-0.35,0.31-0.52,0.76-0.52,1.34v27.08c0,0.44,0.14,0.84,0.42,1.18c0.32,0.37,0.77,0.58,1.26,0.58
			h2.09c0.51,0,0.95-0.21,1.26-0.58c0.28-0.34,0.43-0.74,0.43-1.18V18.9c0.56,0.02,1.02,0.04,1.4,0.05
			c0.59,0.02,1.22,0.02,1.86,0.02h0.45l6.63,11.04c0.29,0.49,0.63,0.78,1.03,0.89c0.23,0.06,0.5,0.09,0.83,0.09h2.47
			c0.88,0,1.49-0.61,1.49-1.5c0-0.28-0.09-0.57-0.26-0.86L75.45,17.96z M75.17,11.8c-0.25,0.52-0.59,0.93-1.07,1.25
			c-0.5,0.34-1.15,0.58-1.93,0.72C71.33,13.92,70.32,14,69.2,14c-0.43,0-1.03-0.01-1.8-0.02c-0.47-0.01-0.96-0.02-1.46-0.03V5.21
			l1.07-0.04c0.39-0.01,0.77-0.02,1.15-0.02h1.04c2.23,0,3.91,0.33,4.98,0.98c0.93,0.56,1.38,1.61,1.38,3.19V9.6
			C75.56,10.51,75.43,11.25,75.17,11.8z"/>
		<path class="st0" d="M101.48,0.24l-1.54-0.1c-0.63-0.04-1.31-0.07-2.02-0.08l-2.1-0.04C95.1,0.01,94.45,0,93.88,0
			c-2.95,0-5.24,0.64-6.79,1.88c-1.62,1.3-2.44,3.43-2.44,6.3v14.89c0,2.89,0.82,5,2.44,6.31c1.55,1.25,3.84,1.88,6.79,1.88h1.94
			c0.73,0,1.46-0.01,2.18-0.03c0.7-0.03,1.36-0.05,1.97-0.06c0.67-0.01,1.2-0.05,1.64-0.11c0.41-0.08,0.74-0.31,0.95-0.65
			c0.16-0.26,0.25-0.56,0.25-0.87v-1.97c0-0.85-0.58-1.46-1.42-1.46h-7.46c-0.95,0-1.71-0.07-2.26-0.19
			c-0.44-0.1-0.76-0.25-0.96-0.44c-0.2-0.19-0.33-0.44-0.4-0.75c-0.1-0.43-0.15-0.98-0.15-1.66v-5.53h10.89
			c0.47,0,0.9-0.18,1.24-0.51c0.35-0.34,0.53-0.77,0.53-1.24v-1.45c0-0.47-0.18-0.9-0.53-1.24c-0.34-0.34-0.77-0.52-1.24-0.52H90.15
			V8.18c0-0.64,0.05-1.19,0.15-1.64c0.07-0.32,0.2-0.57,0.39-0.76c0.2-0.19,0.53-0.34,0.96-0.44c0.55-0.13,1.31-0.19,2.26-0.19h7.46
			c0.84,0,1.42-0.6,1.42-1.45V1.77c0-0.31-0.09-0.61-0.25-0.87C102.34,0.56,102.01,0.33,101.48,0.24z"/>
		<path class="st0" d="M126.49,0.27h-2.02c-0.48,0-0.91,0.18-1.26,0.55c-0.28,0.32-0.42,0.73-0.42,1.17v18.83L112.66,1.56
			c-0.24-0.44-0.52-0.75-0.84-0.95c-0.36-0.23-0.86-0.33-1.62-0.33h-2.13c-0.56,0-1.07,0.2-1.48,0.58
			c-0.42,0.39-0.64,0.91-0.64,1.49v27.19c0,0.62,0.31,1.11,0.82,1.31c0.25,0.1,0.53,0.15,0.87,0.15h2.01c0.49,0,0.93-0.19,1.23-0.53
			c0.3-0.32,0.46-0.74,0.46-1.19V10.4l10.23,19.44c0.21,0.43,0.78,1.16,2.12,1.16h2.37c0.57,0,1.09-0.22,1.48-0.62
			c0.41-0.4,0.62-0.91,0.62-1.49V2c0-0.46-0.16-0.87-0.44-1.18C127.42,0.46,126.99,0.27,126.49,0.27z"/>
		<path class="st0" d="M150.33,3.16c-1.13-1.1-2.5-1.91-4.08-2.42c-2.16-0.69-4.86-0.79-7.36-0.7c-0.71,0.02-1.4,0.06-2.04,0.1
			c-0.63,0.04-1.21,0.07-1.7,0.12c-0.53,0.04-0.95,0.09-1.22,0.14c-1.03,0.15-1.66,0.89-1.66,1.95v26.57c0,1.05,0.63,1.8,1.62,1.94
			c0.31,0.06,0.73,0.11,1.26,0.15c0.5,0.04,1.07,0.08,1.7,0.11c0.64,0.04,1.32,0.07,2.04,0.1c0.72,0.02,1.46,0.03,2.22,0.03
			c1.88,0,3.62-0.25,5.15-0.76c1.58-0.52,2.95-1.33,4.07-2.41c1.13-1.08,2-2.47,2.61-4.13c0.59-1.63,0.89-3.55,0.89-5.72v-5.22
			c0-2.19-0.3-4.13-0.89-5.74C152.33,5.64,151.45,4.26,150.33,3.16z M148.32,13v5.23c0,1.64-0.2,2.99-0.57,4.02
			c-0.37,1-0.87,1.8-1.5,2.39c-0.62,0.59-1.33,0.99-2.16,1.24c-0.9,0.25-1.89,0.38-2.95,0.38h-2.35c-0.31,0-0.63,0-0.94-0.02V5.02
			c0.32-0.02,0.65-0.03,0.98-0.04c1.41-0.02,3.6-0.11,5.26,0.37c0.84,0.24,1.55,0.65,2.18,1.23c0.62,0.58,1.11,1.38,1.49,2.38
			C148.12,10,148.32,11.36,148.32,13z"/>
		<path class="st0" d="M173.89,0.24l-1.55-0.1c-0.62-0.04-1.3-0.07-2.01-0.08l-2.11-0.04C167.51,0.01,166.86,0,166.29,0
			c-2.95,0-5.24,0.64-6.79,1.88c-1.62,1.3-2.44,3.43-2.44,6.3v14.89c0,2.89,0.82,5,2.44,6.31c1.55,1.25,3.84,1.88,6.79,1.88h1.94
			c0.73,0,1.46-0.01,2.19-0.03c0.7-0.03,1.35-0.05,1.97-0.06c0.67-0.01,1.19-0.05,1.64-0.12c0.4-0.07,0.74-0.31,0.93-0.63
			c0.17-0.26,0.26-0.56,0.26-0.89v-1.97c0-0.85-0.58-1.46-1.42-1.46h-7.46c-0.95,0-1.71-0.07-2.26-0.19
			c-0.44-0.1-0.76-0.25-0.97-0.44c-0.19-0.19-0.33-0.44-0.4-0.75c-0.1-0.43-0.14-0.98-0.14-1.66v-5.53h10.88
			c0.47,0,0.9-0.18,1.25-0.53c0.34-0.34,0.52-0.77,0.52-1.23v-1.45c0-0.47-0.18-0.9-0.53-1.24c-0.34-0.34-0.77-0.52-1.24-0.52
			h-10.88V8.18c0-0.64,0.05-1.19,0.15-1.64c0.07-0.32,0.2-0.57,0.4-0.76c0.2-0.19,0.52-0.34,0.96-0.44
			c0.55-0.13,1.31-0.19,2.26-0.19h7.46c0.84,0,1.42-0.6,1.42-1.45V1.77c0-0.32-0.09-0.62-0.24-0.86
			C174.76,0.57,174.43,0.34,173.89,0.24z"/>
		<path class="st0" d="M199.74,28.64l-6.4-10.69c0.51-0.2,0.99-0.44,1.46-0.71c0.84-0.49,1.58-1.11,2.19-1.84
			c0.61-0.73,1.1-1.6,1.43-2.59c0.33-0.96,0.5-2.05,0.5-3.24V9.31c0-1.73-0.31-3.21-0.94-4.41c-0.63-1.2-1.51-2.18-2.61-2.92
			c-1.07-0.71-2.35-1.23-3.79-1.54c-1.9-0.41-3.92-0.48-6.29-0.43c-0.62,0.02-1.24,0.03-1.86,0.06c-0.61,0.03-1.21,0.06-1.76,0.1
			c-0.58,0.04-1.08,0.09-1.52,0.14c-0.58,0.08-0.98,0.23-1.25,0.49c-0.35,0.31-0.53,0.76-0.53,1.34v27.08
			c0,0.44,0.14,0.85,0.42,1.17c0.31,0.38,0.76,0.59,1.26,0.59h2.08c0.51,0,0.95-0.21,1.27-0.59c0.27-0.33,0.42-0.74,0.42-1.17V18.9
			c0.57,0.02,1.02,0.04,1.4,0.05c0.59,0.02,1.21,0.02,1.86,0.02h0.44l6.64,11.04c0.29,0.49,0.62,0.78,1.03,0.89
			c0.23,0.06,0.51,0.09,0.83,0.09h2.47c0.88,0,1.49-0.61,1.49-1.5C200,29.22,199.92,28.93,199.74,28.64z M193.06,11.8
			c-0.25,0.52-0.59,0.93-1.06,1.25c-0.51,0.34-1.16,0.58-1.93,0.72c-0.85,0.15-1.85,0.23-2.98,0.23c-0.44,0-1.03-0.01-1.8-0.02
			c-0.47-0.01-0.96-0.02-1.46-0.03V5.21l1.07-0.04c0.39-0.01,0.77-0.02,1.16-0.02h1.04c2.23,0,3.9,0.33,4.98,0.98
			c0.93,0.56,1.38,1.61,1.38,3.19V9.6C193.45,10.5,193.32,11.25,193.06,11.8z"/>
	</g>
	<g>
		<path class="st0" d="M71.79,39.95c0,0.05-0.01,0.09-0.02,0.11l-3.42,12.09c-0.09,0.3-0.2,0.54-0.34,0.71
			c-0.14,0.18-0.3,0.32-0.46,0.43c-0.17,0.11-0.35,0.18-0.54,0.21c-0.19,0.04-0.37,0.06-0.55,0.06c-0.17,0-0.35-0.02-0.54-0.06
			c-0.19-0.04-0.37-0.11-0.54-0.21c-0.17-0.1-0.33-0.25-0.47-0.43c-0.14-0.18-0.26-0.42-0.34-0.71l-3.44-12.09
			c-0.01-0.02-0.02-0.06-0.02-0.11c0-0.1,0.03-0.18,0.09-0.23c0.06-0.06,0.14-0.08,0.24-0.08h1.08c0.07,0,0.14,0.03,0.2,0.08
			c0.06,0.06,0.1,0.12,0.13,0.19l3.23,11.83c0.07,0.26,0.2,0.39,0.37,0.39c0.16,0,0.28-0.13,0.35-0.39l3.25-11.83
			c0.02-0.07,0.07-0.14,0.12-0.19c0.06-0.06,0.12-0.08,0.2-0.08h1.1C71.68,39.64,71.79,39.74,71.79,39.95z"/>
		<path class="st0" d="M75.65,53.33c-0.06,0.07-0.14,0.11-0.24,0.11h-1.02c-0.1,0-0.18-0.04-0.24-0.11
			c-0.06-0.07-0.09-0.16-0.09-0.26V39.99c0-0.1,0.03-0.18,0.09-0.25c0.06-0.07,0.14-0.1,0.24-0.1h1.02c0.1,0,0.18,0.03,0.24,0.1
			c0.06,0.07,0.09,0.15,0.09,0.25v13.07C75.74,53.17,75.71,53.25,75.65,53.33z"/>
		<path class="st0" d="M86.66,49.85c0,0.45-0.07,0.89-0.2,1.34c-0.14,0.45-0.37,0.84-0.71,1.2c-0.34,0.35-0.81,0.64-1.4,0.85
			c-0.59,0.22-1.35,0.33-2.27,0.33c-0.66,0-1.23-0.03-1.73-0.08s-0.95-0.11-1.36-0.18c-0.16-0.02-0.26-0.06-0.3-0.11
			c-0.04-0.05-0.06-0.12-0.06-0.22v-0.74c0-0.1,0.03-0.17,0.09-0.22c0.06-0.05,0.14-0.07,0.22-0.07h0.06
			c0.21,0.03,0.45,0.04,0.71,0.06c0.27,0.01,0.54,0.02,0.82,0.03c0.28,0.01,0.55,0.01,0.82,0.02c0.27,0.01,0.5,0.01,0.71,0.01
			c0.56,0,1.02-0.05,1.38-0.16c0.36-0.1,0.65-0.25,0.86-0.45c0.21-0.19,0.36-0.42,0.45-0.7c0.09-0.27,0.13-0.57,0.13-0.89
			c0-0.23-0.04-0.45-0.11-0.64c-0.07-0.19-0.2-0.38-0.37-0.57c-0.17-0.19-0.4-0.38-0.69-0.58c-0.29-0.2-0.64-0.44-1.06-0.7l-1.8-1.1
			c-0.85-0.52-1.49-1.04-1.92-1.57c-0.43-0.53-0.64-1.16-0.64-1.9c0-1.13,0.39-1.96,1.16-2.49c0.77-0.53,1.87-0.8,3.3-0.8
			c0.27,0,0.56,0.01,0.86,0.02c0.3,0.01,0.6,0.03,0.89,0.05c0.29,0.02,0.57,0.04,0.83,0.07c0.26,0.03,0.48,0.06,0.65,0.08
			c0.21,0.04,0.32,0.14,0.32,0.32v0.8c0,0.2-0.1,0.3-0.32,0.3h-0.04c-0.41-0.02-0.91-0.05-1.49-0.07c-0.59-0.02-1.15-0.04-1.7-0.04
			c-0.97,0-1.66,0.12-2.09,0.37c-0.43,0.25-0.64,0.71-0.64,1.39c0,0.43,0.16,0.81,0.48,1.13c0.32,0.32,0.83,0.69,1.54,1.11l1.7,1.02
			c0.53,0.32,0.98,0.63,1.35,0.93c0.37,0.3,0.67,0.59,0.91,0.89c0.23,0.3,0.4,0.61,0.5,0.93C86.61,49.14,86.66,49.48,86.66,49.85z"
			/>
		<path class="st0" d="M97.25,52.32c-0.84,0.83-2.01,1.24-3.51,1.24c-1.51,0-2.69-0.41-3.52-1.24c-0.83-0.83-1.25-2.13-1.25-3.9
			v-8.43c0-0.1,0.03-0.18,0.1-0.25c0.07-0.07,0.15-0.1,0.25-0.1h1.01c0.1,0,0.18,0.03,0.25,0.1c0.07,0.07,0.1,0.15,0.1,0.25v8.44
			c0,0.6,0.05,1.13,0.15,1.59c0.1,0.47,0.27,0.85,0.51,1.16c0.24,0.31,0.55,0.55,0.94,0.71c0.38,0.16,0.86,0.24,1.44,0.24
			c0.57,0,1.05-0.08,1.44-0.24c0.39-0.16,0.7-0.4,0.94-0.71c0.24-0.31,0.41-0.69,0.51-1.15c0.1-0.46,0.15-0.99,0.15-1.6v-8.44
			c0-0.1,0.03-0.18,0.1-0.25c0.07-0.07,0.15-0.1,0.25-0.1h1.01c0.1,0,0.18,0.03,0.25,0.1c0.07,0.07,0.1,0.15,0.1,0.25v8.43
			C98.51,50.19,98.09,51.49,97.25,52.32z"/>
		<path class="st0" d="M110.62,53.14c0,0.2-0.1,0.3-0.32,0.3h-1.1c-0.09,0-0.16-0.03-0.2-0.08s-0.09-0.12-0.11-0.2l-1.21-4.27h-4.81
			l-1.19,4.27c-0.03,0.07-0.07,0.14-0.13,0.2c-0.06,0.06-0.13,0.08-0.2,0.08h-1.1c-0.21,0-0.32-0.1-0.32-0.3
			c0-0.06,0.01-0.11,0.02-0.13l3.44-12.09c0.07-0.28,0.18-0.52,0.32-0.7c0.14-0.18,0.3-0.32,0.47-0.43
			c0.17-0.11,0.36-0.18,0.55-0.22s0.37-0.07,0.55-0.07c0.17,0,0.35,0.02,0.54,0.06s0.36,0.11,0.54,0.21
			c0.17,0.11,0.33,0.25,0.47,0.43c0.14,0.18,0.25,0.41,0.32,0.7l3.44,12.11C110.61,53.04,110.62,53.08,110.62,53.14z M105.64,41.31
			c-0.06-0.22-0.18-0.33-0.35-0.33c-0.19,0-0.31,0.11-0.37,0.33l-1.69,6.11h4.1L105.64,41.31z"/>
		<path class="st0" d="M119.99,53.31c-0.03,0.05-0.08,0.08-0.14,0.09c-0.25,0.04-0.69,0.07-1.34,0.11
			c-0.64,0.04-1.41,0.06-2.28,0.06c-0.5,0-0.98-0.04-1.46-0.11c-0.48-0.07-0.9-0.23-1.27-0.47c-0.37-0.24-0.67-0.59-0.89-1.04
			c-0.22-0.45-0.33-1.06-0.33-1.83v-10.1c0-0.1,0.04-0.19,0.11-0.26s0.16-0.11,0.26-0.11h0.95c0.1,0,0.19,0.04,0.26,0.11
			c0.07,0.07,0.11,0.16,0.11,0.26v10.1c0,0.36,0.03,0.66,0.08,0.9c0.06,0.24,0.16,0.44,0.33,0.59c0.16,0.16,0.39,0.27,0.69,0.33
			c0.3,0.07,0.69,0.1,1.19,0.1h3.58c0.14,0,0.2,0.07,0.2,0.22v0.87C120.03,53.2,120.02,53.26,119.99,53.31z"/>
		<path class="st0" d="M123.6,53.33c-0.06,0.07-0.14,0.11-0.24,0.11h-1.02c-0.1,0-0.18-0.04-0.24-0.11
			c-0.06-0.07-0.09-0.16-0.09-0.26V39.99c0-0.1,0.03-0.18,0.09-0.25c0.06-0.07,0.14-0.1,0.24-0.1h1.02c0.1,0,0.18,0.03,0.24,0.1
			c0.06,0.07,0.09,0.15,0.09,0.25v13.07C123.69,53.17,123.66,53.25,123.6,53.33z"/>
		<path class="st0" d="M135.32,53.34c-0.07,0.06-0.16,0.09-0.26,0.09h-7.15c-0.59,0-1-0.09-1.22-0.26c-0.22-0.17-0.32-0.51-0.32-1
			c0-0.16,0.02-0.35,0.06-0.56c0.04-0.21,0.11-0.38,0.21-0.52l6.65-9.66c0.04-0.05,0.06-0.1,0.06-0.15c0-0.09-0.06-0.13-0.19-0.13
			H127c-0.1,0-0.19-0.03-0.26-0.08c-0.07-0.06-0.11-0.13-0.11-0.24v-0.88c0-0.1,0.04-0.18,0.11-0.23c0.07-0.06,0.16-0.08,0.26-0.08
			h6.61c0.52,0,0.91,0.08,1.18,0.23c0.27,0.16,0.4,0.49,0.4,0.99c0,0.17-0.02,0.37-0.07,0.58c-0.05,0.21-0.12,0.38-0.22,0.52
			l-6.63,9.68c-0.04,0.06-0.06,0.12-0.06,0.17c0,0.07,0.06,0.11,0.19,0.11h6.67c0.1,0,0.19,0.03,0.26,0.08
			c0.07,0.06,0.11,0.13,0.11,0.23v0.87C135.43,53.2,135.39,53.28,135.32,53.34z"/>
		<path class="st0" d="M145.58,53.38c-0.03,0.05-0.08,0.08-0.14,0.09c-0.17,0.02-0.41,0.04-0.71,0.05c-0.3,0.01-0.62,0.02-0.96,0.03
			c-0.34,0.01-0.68,0.02-1.03,0.02c-0.35,0-0.66,0-0.93,0c-1.31,0-2.3-0.27-2.96-0.8c-0.66-0.53-0.99-1.42-0.99-2.66v-7.15
			c0-1.24,0.33-2.12,0.99-2.66c0.66-0.53,1.65-0.8,2.96-0.8c0.27,0,0.58,0,0.92,0.01c0.34,0.01,0.68,0.01,1.01,0.02
			c0.33,0.01,0.65,0.02,0.95,0.04c0.3,0.02,0.54,0.03,0.74,0.05c0.06,0.01,0.11,0.04,0.14,0.09c0.03,0.05,0.05,0.11,0.05,0.17v0.93
			c0,0.15-0.07,0.22-0.2,0.22h-3.58c-0.5,0-0.89,0.03-1.19,0.1c-0.3,0.07-0.53,0.18-0.69,0.33c-0.16,0.16-0.27,0.36-0.33,0.6
			c-0.06,0.25-0.08,0.54-0.08,0.89v2.58h5.7c0.1,0,0.19,0.04,0.26,0.11c0.07,0.07,0.11,0.16,0.11,0.26v0.7
			c0,0.1-0.04,0.18-0.11,0.26c-0.07,0.07-0.16,0.11-0.26,0.11h-5.7v3.13c0,0.36,0.03,0.66,0.08,0.9c0.06,0.24,0.16,0.44,0.33,0.6
			c0.16,0.16,0.39,0.27,0.69,0.34c0.3,0.07,0.69,0.1,1.19,0.1h3.58c0.14,0,0.2,0.07,0.2,0.22v0.95
			C145.63,53.28,145.61,53.33,145.58,53.38z"/>
		<path class="st0" d="M154.46,53.33c-0.06,0.07-0.14,0.11-0.24,0.11h-1.02c-0.1,0-0.18-0.04-0.24-0.11
			c-0.06-0.07-0.09-0.16-0.09-0.26V39.99c0-0.1,0.03-0.18,0.09-0.25c0.06-0.07,0.14-0.1,0.24-0.1h1.02c0.1,0,0.18,0.03,0.24,0.1
			c0.06,0.07,0.09,0.15,0.09,0.25v13.07C154.56,53.17,154.53,53.25,154.46,53.33z"/>
		<path class="st0" d="M167.04,47.79c0,0.99-0.13,1.85-0.4,2.58c-0.27,0.73-0.64,1.33-1.13,1.8c-0.49,0.47-1.08,0.82-1.77,1.05
			c-0.69,0.23-1.47,0.34-2.32,0.34c-0.36,0-0.71-0.01-1.05-0.02c-0.34-0.01-0.66-0.03-0.97-0.05c-0.3-0.02-0.57-0.04-0.81-0.06
			c-0.24-0.02-0.42-0.04-0.56-0.07c-0.26-0.04-0.39-0.19-0.39-0.46V40.16c0-0.27,0.13-0.43,0.39-0.46c0.14-0.02,0.32-0.05,0.56-0.06
			c0.23-0.02,0.5-0.04,0.81-0.06c0.3-0.02,0.62-0.03,0.97-0.05c0.34-0.01,0.69-0.02,1.05-0.02c0.85,0,1.63,0.11,2.32,0.33
			c0.69,0.22,1.28,0.57,1.77,1.05c0.49,0.48,0.87,1.08,1.13,1.8c0.27,0.72,0.4,1.59,0.4,2.59V47.79z M165.35,45.27
			c0-0.84-0.1-1.54-0.31-2.1c-0.2-0.56-0.48-1-0.83-1.33c-0.35-0.33-0.77-0.56-1.24-0.7c-0.48-0.14-0.99-0.2-1.55-0.2
			c-0.43,0-0.81,0-1.12,0.01c-0.31,0.01-0.63,0.02-0.93,0.05v11.09c0.3,0.03,0.6,0.04,0.93,0.04c0.32,0,0.7,0,1.13,0
			c0.56,0,1.07-0.07,1.55-0.2c0.48-0.14,0.89-0.37,1.24-0.71c0.35-0.34,0.63-0.78,0.83-1.33c0.2-0.55,0.31-1.25,0.31-2.09V45.27z"/>
		<path class="st0" d="M177.26,53.38c-0.03,0.05-0.08,0.08-0.14,0.09c-0.17,0.02-0.41,0.04-0.71,0.05c-0.3,0.01-0.62,0.02-0.96,0.03
			c-0.34,0.01-0.68,0.02-1.03,0.02s-0.66,0-0.93,0c-1.31,0-2.3-0.27-2.96-0.8c-0.66-0.53-0.99-1.42-0.99-2.66v-7.15
			c0-1.24,0.33-2.12,0.99-2.66c0.66-0.53,1.65-0.8,2.96-0.8c0.27,0,0.58,0,0.92,0.01c0.34,0.01,0.68,0.01,1.01,0.02
			s0.65,0.02,0.95,0.04c0.3,0.02,0.54,0.03,0.74,0.05c0.06,0.01,0.11,0.04,0.14,0.09c0.03,0.05,0.05,0.11,0.05,0.17v0.93
			c0,0.15-0.07,0.22-0.2,0.22h-3.58c-0.5,0-0.89,0.03-1.19,0.1c-0.3,0.07-0.53,0.18-0.69,0.33c-0.16,0.16-0.27,0.36-0.33,0.6
			c-0.06,0.25-0.08,0.54-0.08,0.89v2.58h5.7c0.1,0,0.19,0.04,0.26,0.11c0.07,0.07,0.11,0.16,0.11,0.26v0.7
			c0,0.1-0.04,0.18-0.11,0.26c-0.07,0.07-0.16,0.11-0.26,0.11h-5.7v3.13c0,0.36,0.03,0.66,0.08,0.9c0.06,0.24,0.16,0.44,0.33,0.6
			c0.16,0.16,0.39,0.27,0.69,0.34c0.3,0.07,0.69,0.1,1.19,0.1h3.58c0.14,0,0.2,0.07,0.2,0.22v0.95
			C177.31,53.28,177.29,53.33,177.26,53.38z"/>
		<path class="st0" d="M189.55,53.14c0,0.2-0.1,0.3-0.32,0.3h-1.1c-0.09,0-0.15-0.03-0.2-0.08c-0.05-0.06-0.09-0.12-0.11-0.2
			l-1.21-4.27h-4.81l-1.19,4.27c-0.03,0.07-0.07,0.14-0.13,0.2s-0.13,0.08-0.2,0.08h-1.1c-0.21,0-0.32-0.1-0.32-0.3
			c0-0.06,0.01-0.11,0.02-0.13l3.44-12.09c0.07-0.28,0.18-0.52,0.32-0.7c0.14-0.18,0.3-0.32,0.47-0.43
			c0.17-0.11,0.36-0.18,0.55-0.22s0.37-0.07,0.55-0.07c0.17,0,0.35,0.02,0.54,0.06s0.36,0.11,0.54,0.21
			c0.17,0.11,0.33,0.25,0.47,0.43c0.14,0.18,0.25,0.41,0.32,0.7l3.44,12.11C189.54,53.04,189.55,53.08,189.55,53.14z M184.57,41.31
			c-0.06-0.22-0.18-0.33-0.35-0.33c-0.19,0-0.31,0.11-0.37,0.33l-1.69,6.11h4.1L184.57,41.31z"/>
		<path class="st0" d="M199.07,49.85c0,0.45-0.07,0.89-0.2,1.34c-0.14,0.45-0.37,0.84-0.71,1.2c-0.34,0.35-0.81,0.64-1.4,0.85
			c-0.59,0.22-1.35,0.33-2.27,0.33c-0.66,0-1.23-0.03-1.73-0.08s-0.95-0.11-1.36-0.18c-0.16-0.02-0.26-0.06-0.3-0.11
			c-0.04-0.05-0.06-0.12-0.06-0.22v-0.74c0-0.1,0.03-0.17,0.09-0.22c0.06-0.05,0.14-0.07,0.22-0.07h0.06
			c0.21,0.03,0.45,0.04,0.71,0.06c0.27,0.01,0.54,0.02,0.82,0.03c0.28,0.01,0.55,0.01,0.82,0.02c0.27,0.01,0.5,0.01,0.71,0.01
			c0.56,0,1.02-0.05,1.38-0.16c0.36-0.1,0.65-0.25,0.86-0.45c0.21-0.19,0.36-0.42,0.45-0.7c0.09-0.27,0.13-0.57,0.13-0.89
			c0-0.23-0.04-0.45-0.11-0.64c-0.07-0.19-0.2-0.38-0.37-0.57c-0.17-0.19-0.4-0.38-0.69-0.58c-0.29-0.2-0.64-0.44-1.06-0.7l-1.8-1.1
			c-0.85-0.52-1.49-1.04-1.92-1.57c-0.43-0.53-0.64-1.16-0.64-1.9c0-1.13,0.39-1.96,1.16-2.49c0.77-0.53,1.87-0.8,3.3-0.8
			c0.27,0,0.56,0.01,0.86,0.02c0.3,0.01,0.6,0.03,0.89,0.05c0.29,0.02,0.57,0.04,0.83,0.07c0.26,0.03,0.48,0.06,0.65,0.08
			c0.21,0.04,0.32,0.14,0.32,0.32v0.8c0,0.2-0.1,0.3-0.32,0.3h-0.04c-0.41-0.02-0.91-0.05-1.49-0.07c-0.59-0.02-1.15-0.04-1.7-0.04
			c-0.97,0-1.66,0.12-2.09,0.37c-0.43,0.25-0.64,0.71-0.64,1.39c0,0.43,0.16,0.81,0.48,1.13c0.32,0.32,0.83,0.69,1.54,1.11l1.7,1.02
			c0.53,0.32,0.98,0.63,1.35,0.93c0.37,0.3,0.67,0.59,0.91,0.89c0.23,0.3,0.4,0.61,0.5,0.93C199.02,49.14,199.07,49.48,199.07,49.85
			z"/>
	</g>
</g>
</svg>
