<?xml version="1.0" encoding="utf-8"?>
<!-- Generator: Adobe Illustrator 23.0.1, SVG Export Plug-In . SVG Version: 6.00 Build 0)  -->
<svg version="1.1" id="Layer_1" xmlns="http://www.w3.org/2000/svg" xmlns:xlink="http://www.w3.org/1999/xlink" x="0px" y="0px"
	 viewBox="0 0 177.84 31.26" style="enable-background:new 0 0 177.84 31.26;" xml:space="preserve">
<style type="text/css">
	.st0{fill:#B7B7B7;}
</style>
<g>
	<rect y="0.02" class="st0" width="31.23" height="31.25"/>
	<g>
		<path class="st0" d="M53.29,17.96c0.51-0.2,0.99-0.44,1.46-0.71c0.84-0.49,1.58-1.11,2.19-1.84c0.62-0.73,1.1-1.6,1.43-2.58
			c0.34-0.97,0.5-2.06,0.5-3.24V9.31c0-1.73-0.31-3.21-0.94-4.41c-0.64-1.2-1.51-2.18-2.61-2.92c-1.07-0.71-2.34-1.23-3.78-1.54
			c-1.89-0.4-3.94-0.48-6.29-0.43c-0.62,0.02-1.25,0.03-1.86,0.06c-0.62,0.03-1.21,0.06-1.77,0.1c-0.58,0.04-1.08,0.09-1.52,0.14
			c-0.57,0.08-0.97,0.23-1.26,0.49c-0.35,0.31-0.52,0.76-0.52,1.34v27.08c0,0.44,0.14,0.84,0.42,1.18C39.06,30.78,39.51,31,40,31
			h2.09c0.51,0,0.95-0.21,1.26-0.58c0.28-0.34,0.43-0.74,0.43-1.18V18.9c0.56,0.02,1.02,0.04,1.4,0.05
			c0.59,0.02,1.22,0.02,1.86,0.02h0.45l6.63,11.04c0.29,0.49,0.63,0.78,1.03,0.89c0.23,0.06,0.5,0.09,0.83,0.09h2.47
			c0.88,0,1.49-0.61,1.49-1.5c0-0.28-0.09-0.57-0.26-0.86L53.29,17.96z M53.01,11.8c-0.25,0.52-0.59,0.93-1.07,1.25
			c-0.5,0.34-1.15,0.58-1.93,0.72C49.17,13.92,48.16,14,47.04,14c-0.43,0-1.03-0.01-1.8-0.02c-0.47-0.01-0.96-0.02-1.46-0.03V5.21
			l1.07-0.04c0.39-0.01,0.77-0.02,1.15-0.02h1.04c2.23,0,3.91,0.33,4.98,0.98c0.93,0.56,1.38,1.61,1.38,3.19V9.6
			C53.4,10.51,53.27,11.25,53.01,11.8z"/>
		<path class="st0" d="M79.32,0.24l-1.54-0.1c-0.63-0.04-1.31-0.07-2.02-0.08l-2.1-0.04C72.94,0.01,72.29,0,71.72,0
			c-2.95,0-5.24,0.64-6.79,1.88c-1.62,1.3-2.44,3.43-2.44,6.3v14.89c0,2.89,0.82,5,2.44,6.31c1.55,1.25,3.84,1.88,6.79,1.88h1.94
			c0.73,0,1.46-0.01,2.18-0.03c0.7-0.03,1.36-0.05,1.97-0.06c0.67-0.01,1.2-0.05,1.64-0.11c0.41-0.08,0.74-0.31,0.95-0.65
			c0.16-0.26,0.25-0.56,0.25-0.87v-1.97c0-0.85-0.58-1.46-1.42-1.46h-7.46c-0.95,0-1.71-0.07-2.26-0.19
			c-0.44-0.1-0.76-0.25-0.96-0.44c-0.2-0.19-0.33-0.44-0.4-0.75c-0.1-0.43-0.15-0.98-0.15-1.66v-5.53h10.89
			c0.47,0,0.9-0.18,1.24-0.51c0.35-0.34,0.53-0.77,0.53-1.24v-1.45c0-0.47-0.18-0.9-0.53-1.24c-0.34-0.34-0.77-0.52-1.24-0.52H67.99
			V8.18c0-0.64,0.05-1.19,0.15-1.64c0.07-0.32,0.2-0.57,0.39-0.76c0.2-0.19,0.53-0.34,0.96-0.44c0.55-0.13,1.31-0.19,2.26-0.19h7.46
			c0.84,0,1.42-0.6,1.42-1.45V1.77c0-0.31-0.09-0.61-0.25-0.87C80.18,0.56,79.85,0.33,79.32,0.24z"/>
		<path class="st0" d="M104.33,0.27h-2.02c-0.48,0-0.91,0.18-1.26,0.55c-0.28,0.32-0.42,0.73-0.42,1.17v18.83L90.5,1.56
			c-0.24-0.44-0.52-0.75-0.84-0.95c-0.36-0.23-0.86-0.33-1.62-0.33h-2.13c-0.56,0-1.07,0.2-1.48,0.58
			c-0.42,0.39-0.64,0.91-0.64,1.49v27.19c0,0.62,0.31,1.11,0.82,1.31c0.25,0.1,0.53,0.15,0.87,0.15h2.01c0.49,0,0.93-0.19,1.23-0.53
			c0.3-0.32,0.46-0.74,0.46-1.19V10.4l10.23,19.44c0.21,0.43,0.78,1.16,2.12,1.16h2.37c0.57,0,1.09-0.22,1.48-0.62
			c0.41-0.4,0.62-0.91,0.62-1.49V2c0-0.46-0.16-0.87-0.44-1.18C105.26,0.46,104.83,0.27,104.33,0.27z"/>
		<path class="st0" d="M128.17,3.16c-1.13-1.1-2.5-1.91-4.08-2.42c-2.16-0.69-4.86-0.79-7.36-0.7c-0.71,0.02-1.4,0.06-2.04,0.1
			c-0.63,0.04-1.21,0.07-1.7,0.12c-0.53,0.04-0.95,0.09-1.22,0.14c-1.03,0.15-1.66,0.89-1.66,1.95v26.57c0,1.05,0.63,1.8,1.62,1.94
			c0.31,0.06,0.73,0.11,1.26,0.15c0.5,0.04,1.07,0.08,1.7,0.11c0.64,0.04,1.32,0.07,2.04,0.1c0.72,0.02,1.46,0.03,2.22,0.03
			c1.88,0,3.62-0.25,5.15-0.76c1.58-0.52,2.95-1.33,4.07-2.41c1.13-1.08,2-2.47,2.61-4.13c0.59-1.63,0.89-3.55,0.89-5.72v-5.22
			c0-2.19-0.3-4.13-0.89-5.74C130.16,5.64,129.29,4.26,128.17,3.16z M126.15,13v5.23c0,1.64-0.2,2.99-0.57,4.02
			c-0.37,1-0.87,1.8-1.5,2.39c-0.62,0.59-1.33,0.99-2.16,1.24c-0.9,0.25-1.89,0.38-2.95,0.38h-2.35c-0.31,0-0.63,0-0.94-0.02V5.02
			c0.32-0.02,0.65-0.03,0.98-0.04c1.41-0.02,3.6-0.11,5.26,0.37c0.84,0.24,1.55,0.65,2.18,1.23c0.62,0.58,1.11,1.38,1.49,2.38
			C125.96,10,126.15,11.36,126.15,13z"/>
		<path class="st0" d="M151.73,0.24l-1.55-0.1c-0.62-0.04-1.3-0.07-2.01-0.08l-2.11-0.04C145.35,0.01,144.7,0,144.13,0
			c-2.95,0-5.24,0.64-6.79,1.88c-1.62,1.3-2.44,3.43-2.44,6.3v14.89c0,2.89,0.82,5,2.44,6.31c1.55,1.25,3.84,1.88,6.79,1.88h1.94
			c0.73,0,1.46-0.01,2.19-0.03c0.7-0.03,1.35-0.05,1.97-0.06c0.67-0.01,1.19-0.05,1.64-0.12c0.4-0.07,0.74-0.31,0.93-0.63
			c0.17-0.26,0.26-0.56,0.26-0.89v-1.97c0-0.85-0.58-1.46-1.42-1.46h-7.46c-0.95,0-1.71-0.07-2.26-0.19
			c-0.44-0.1-0.76-0.25-0.97-0.44c-0.19-0.19-0.33-0.44-0.4-0.75c-0.1-0.43-0.14-0.98-0.14-1.66v-5.53h10.88
			c0.47,0,0.9-0.18,1.25-0.53c0.34-0.34,0.52-0.77,0.52-1.23v-1.45c0-0.47-0.18-0.9-0.53-1.24c-0.34-0.34-0.77-0.52-1.24-0.52H140.4
			V8.18c0-0.64,0.05-1.19,0.15-1.64c0.07-0.32,0.2-0.57,0.4-0.76c0.2-0.19,0.52-0.34,0.96-0.44c0.55-0.13,1.31-0.19,2.26-0.19h7.46
			c0.84,0,1.42-0.6,1.42-1.45V1.77c0-0.32-0.09-0.62-0.24-0.86C152.6,0.57,152.27,0.34,151.73,0.24z"/>
		<path class="st0" d="M177.58,28.64l-6.4-10.69c0.51-0.2,0.99-0.44,1.46-0.71c0.84-0.49,1.58-1.11,2.19-1.84
			c0.61-0.73,1.1-1.6,1.43-2.59c0.33-0.96,0.5-2.05,0.5-3.24V9.31c0-1.73-0.31-3.21-0.94-4.41c-0.63-1.2-1.51-2.18-2.61-2.92
			c-1.07-0.71-2.35-1.23-3.79-1.54c-1.9-0.41-3.92-0.48-6.29-0.43c-0.62,0.02-1.24,0.03-1.86,0.06c-0.61,0.03-1.21,0.06-1.76,0.1
			c-0.58,0.04-1.08,0.09-1.52,0.14c-0.58,0.08-0.98,0.23-1.25,0.49c-0.35,0.31-0.53,0.76-0.53,1.34v27.08
			c0,0.44,0.14,0.85,0.42,1.17c0.31,0.38,0.76,0.59,1.26,0.59h2.08c0.51,0,0.95-0.21,1.27-0.59c0.27-0.33,0.42-0.74,0.42-1.17V18.9
			c0.57,0.02,1.02,0.04,1.4,0.05c0.59,0.02,1.21,0.02,1.86,0.02h0.44l6.64,11.04c0.29,0.49,0.62,0.78,1.03,0.89
			c0.23,0.06,0.51,0.09,0.83,0.09h2.47c0.88,0,1.49-0.61,1.49-1.5C177.84,29.22,177.76,28.93,177.58,28.64z M170.9,11.8
			c-0.25,0.52-0.59,0.93-1.06,1.25c-0.51,0.34-1.16,0.58-1.93,0.72c-0.85,0.15-1.85,0.23-2.98,0.23c-0.44,0-1.03-0.01-1.8-0.02
			c-0.47-0.01-0.96-0.02-1.46-0.03V5.21l1.07-0.04c0.39-0.01,0.77-0.02,1.16-0.02h1.04c2.23,0,3.9,0.33,4.98,0.98
			c0.93,0.56,1.38,1.61,1.38,3.19V9.6C171.29,10.5,171.16,11.25,170.9,11.8z"/>
	</g>
</g>
</svg>
